<?xml version="1.0" standalone="no"?><!DOCTYPE svg PUBLIC "-//W3C//DTD SVG 1.1//EN" "http://www.w3.org/Graphics/SVG/1.1/DTD/svg11.dtd"><svg t="1589616794264" class="icon" viewBox="0 0 1024 1024" version="1.1" xmlns="http://www.w3.org/2000/svg" p-id="2492" xmlns:xlink="http://www.w3.org/1999/xlink" width="200" height="200"><defs><style type="text/css"></style></defs><path d="M287.630555 83.930698S218.122025 68.257206 181.153028 113.744405 52.017083 627.56236 52.017083 627.56236l154.690551 25.554607zM732.110344 83.930698S801.618874 68.257206 838.587871 113.744405s129.135945 513.988319 129.135945 513.988319l-154.690551 25.554607z" fill="#6C9DFF" p-id="2493"></path><path d="M228.00314 345.098776S181.153028 159.061241 337.376856 62.635192 699.400448 14.251804 757.66495 119.366419s39.694822 229.991459 39.694823 229.991458l-62.523604-5.622013-5.622014-55.368314a312.61802 312.61802 0 0 1-123.513931-36.968998l-64.227245-34.072808a275.13793 275.13793 0 0 1-107.499711 49.064844C368.553476 281.21226 290.526744 289.730462 290.526744 289.730462l-2.896189 42.591011z" fill="#6C9DFF" p-id="2494"></path><path d="M443.854383 695.367249h133.054318l29.813707 92.67804 81.945105 12.777303v46.850112s-60.649599 29.813708-175.645329 35.094993a284.337588 284.337588 0 0 1-194.896465-72.404718l105.455343-19.080773z" fill="#FFECE3" p-id="2495"></path><path d="M232.262241 837.79159c-42.591011 49.746301-51.109213 167.467855-51.109213 167.467854h655.901567s9.881115-103.581338-46.850112-158.949652a185.356079 185.356079 0 0 0-104.944251-43.272467 254.183153 254.183153 0 0 1-162.697661 55.368314 339.024446 339.024446 0 0 1-190.637365-52.131397 97.618597 97.618597 0 0 0-99.662965 31.517348z" fill="#FFF385" p-id="2496"></path><path d="M758.346407 352.765158a56.90159 56.90159 0 0 0-17.036405 2.555461V272.694058l-96.596412-15.673492-102.218426-40.376278-129.135945 43.272467-120.617743 12.777303v82.456197a57.412683 57.412683 0 1 0-1.022184 103.922066v30.835892s23.510238 212.955054 227.94709 212.955054c161.845841 0 223.687989-200.177751 223.687989-200.177751v-37.480089a56.90159 56.90159 0 0 0 17.036404 2.55546 57.412683 57.412683 0 0 0 0-114.995729z" fill="#FFECE3" p-id="2497"></path><path d="M512 511.203718c35.435721 0 83.819109-15.673492 92.337311 4.259102S572.990328 579.349336 513.362912 579.349336s-118.232646-48.724116-92.337311-72.404719c15.673492-14.140216 90.974399 4.259101 90.974399 4.259101z" fill="#EC7094" p-id="2498"></path><path d="M685.260232 525.343934m-46.850112 0a46.850112 46.850112 0 1 0 93.700224 0 46.850112 46.850112 0 1 0-93.700224 0Z" fill="#EC7094" p-id="2499"></path><path d="M338.739768 525.343934m-46.850112 0a46.850112 46.850112 0 1 0 93.700224 0 46.850112 46.850112 0 1 0-93.700224 0Z" fill="#EC7094" p-id="2500"></path><path d="M423.751426 340.839675a47.020476 47.020476 0 0 1 27.598975 7.325654 12.777303 12.777303 0 0 0 17.036404-19.762229 70.36035 70.36035 0 0 0-43.953923-13.118031 69.678894 69.678894 0 0 0-43.783559 13.288395 12.606939 12.606939 0 0 0-1.533277 17.036404 12.947667 12.947667 0 0 0 17.888225 1.874005 46.33902 46.33902 0 0 1 26.747155-6.644198zM555.613195 351.231882a12.777303 12.777303 0 0 0 12.606939 10.392206h2.385097l68.145617-12.947667a12.777303 12.777303 0 0 0-5.281285-24.87315l-68.145617 12.947667a12.777303 12.777303 0 0 0-9.710751 14.480944z" fill="#4C4497" p-id="2501"></path><path d="M429.714167 422.78478m-33.902445 0a33.902445 33.902445 0 1 0 67.80489 0 33.902445 33.902445 0 1 0-67.80489 0Z" fill="#4C4497" p-id="2502"></path><path d="M594.285833 422.78478m-33.902445 0a33.902445 33.902445 0 1 0 67.80489 0 33.902445 33.902445 0 1 0-67.80489 0Z" fill="#4C4497" p-id="2503"></path><path d="M597.182022 838.64341l-11.244027 2.55546a8.518202 8.518202 0 0 0 1.70364 17.036405h1.703641l11.925483-2.725825a8.518202 8.518202 0 0 0 6.303469-10.221843 8.347838 8.347838 0 0 0-10.392206-6.644197z" fill="#4C4497" p-id="2504"></path><path d="M987.315681 622.621803L887.993444 169.283083a140.379972 140.379972 0 0 0-155.8831-109.884807l-17.036404 2.214732A337.49117 337.49117 0 0 0 512 0.111588a337.49117 337.49117 0 0 0-203.244304 61.671784l-17.036404-2.214732a140.209608 140.209608 0 0 0-155.712736 109.714443L36.684319 622.621803a17.036404 17.036404 0 0 0 13.45876 20.443685l166.104942 32.02844h3.236917a17.036404 17.036404 0 0 0 17.036404-14.821672L257.987211 494.167314a88.248574 88.248574 0 0 0 12.266212 1.703641 243.279854 243.279854 0 0 0 157.075647 204.436852l-12.266211 59.116323a27.258247 27.258247 0 0 1-23.850966 21.636233l-77.515639 8.00711a156.053464 156.053464 0 0 0-139.187424 136.291235l-10.221842 78.708188a17.036404 17.036404 0 0 0 14.651307 18.228952h2.214733a17.036404 17.036404 0 0 0 17.036404-14.821671l10.221843-78.708188a122.151019 122.151019 0 0 1 108.862623-106.136799l19.421501-2.044369A346.009372 346.009372 0 0 0 512 865.560929c11.925483 0 23.850966 0 35.435721-1.533277a8.518202 8.518202 0 0 0 7.666382-9.199658 8.688566 8.688566 0 0 0-9.199658-7.666382c-11.073663 1.022184-22.488054 1.533276-34.072809 1.533276A341.579907 341.579907 0 0 1 366.679471 817.858996l28.110067-2.896188A61.160692 61.160692 0 0 0 448.454212 766.749783l11.584755-56.220134a238.509661 238.509661 0 0 0 103.922066 0l11.584755 56.220134a61.160692 61.160692 0 0 0 53.835038 48.553753l27.769339 2.896189a284.337588 284.337588 0 0 1-27.598975 11.584755 8.518202 8.518202 0 0 0 2.896189 17.036404 8.518202 8.518202 0 0 0 2.896188 0 287.574505 287.574505 0 0 0 52.301762-24.532422l19.421501 2.044368a122.151019 122.151019 0 0 1 108.862623 106.136799l10.221843 78.708188a17.036404 17.036404 0 0 0 17.036404 14.821672h2.214733a17.036404 17.036404 0 0 0 14.651308-19.080773l-10.221843-78.708188a156.053464 156.053464 0 0 0-139.187423-136.291235l-77.51564-8.00711a27.258247 27.258247 0 0 1-23.850966-21.636233L597.182022 700.137443a243.279854 243.279854 0 0 0 157.075648-204.436852 88.248574 88.248574 0 0 0 12.266211-1.703641l21.636233 165.59385a17.036404 17.036404 0 0 0 17.036405 14.821672h3.236916l166.104943-31.858076a17.036404 17.036404 0 0 0 13.458759-20.443685z m-781.970959 15.332764L73.823681 613.422144l95.403864-436.13195A106.307163 106.307163 0 0 1 273.490339 92.4489a260.656986 260.656986 0 0 0-70.189986 182.630254 334.424617 334.424617 0 0 0 8.858931 75.130544 87.056026 87.056026 0 0 0 12.777303 129.476672z m64.05688-255.546065l-25.895334 14.140215a8.518202 8.518202 0 1 0 8.177474 14.992036l17.036404-9.71075v61.160691a53.835038 53.835038 0 0 1 0-106.307163z m451.805443 90.974399a208.866317 208.866317 0 0 1-417.732634 0V298.0783a573.44537 573.44537 0 0 0 134.928322-20.443685 391.8373 391.8373 0 0 0 104.773887-48.04266A367.645606 367.645606 0 0 0 631.25483 274.05697a483.152427 483.152427 0 0 0 88.759667 22.488054zM643.180313 241.858166a307.677462 307.677462 0 0 1-89.100394-46.509384l-1.533277-0.85182 5.962742-86.37457a8.518202 8.518202 0 0 0-17.036405-1.192548l-5.962741 86.37457a17.036404 17.036404 0 0 0-3.066553 1.70364 337.320806 337.320806 0 0 1-104.09243 49.746301 562.201343 562.201343 0 0 1-141.57252 19.421501 17.036404 17.036404 0 0 0-17.036405 17.036404v40.717006a87.567118 87.567118 0 0 0-26.065698 6.473834 296.433435 296.433435 0 0 1-4.940558-53.323946C238.054618 133.165906 350.665251 34.184397 512 34.184397c12.606939 0 24.87315 0 36.968997 2.044369a8.518202 8.518202 0 0 0-2.896188 5.962741l-2.385097 35.094993a8.518202 8.518202 0 0 0 7.836746 9.029294 8.518202 8.518202 0 0 0 8.518202-8.00711L563.109213 43.213691a8.347838 8.347838 0 0 0-1.70364-5.622013c134.41723 18.228953 224.539809 110.736628 224.539809 237.487476a296.092707 296.092707 0 0 1-4.940558 53.323946 87.567118 87.567118 0 0 0-26.065698-6.473834v-40.546642a17.036404 17.036404 0 0 0-16.184584-17.036404 393.711304 393.711304 0 0 1-95.574229-22.488054z m111.758813 220.451072v-61.160692l17.036404 9.710751a8.518202 8.518202 0 1 0 8.177474-14.992036l-25.895334-14.140215v-25.724971a53.835038 53.835038 0 0 1 0 106.307163zM818.655278 637.954567l-20.614049-158.268197a87.056026 87.056026 0 0 0 12.777303-129.476672 333.743161 333.743161 0 0 0 8.85893-75.130544A260.656986 260.656986 0 0 0 750.509661 92.4489a106.307163 106.307163 0 0 1 104.94425 84.159837L950.176319 613.422144z" fill="#4C4497" p-id="2505"></path><path d="M602.292943 499.959692a71.552898 71.552898 0 0 0-41.398463 0l-13.629123 2.214732a288.085597 288.085597 0 0 1-34.072809 2.555461 289.618874 289.618874 0 0 1-34.072808-2.555461l-13.629124-2.214732a71.552898 71.552898 0 0 0-41.398462 0 26.576791 26.576791 0 0 0-13.629124 31.517348c6.814562 26.917519 47.19084 54.686858 103.24061 54.686858 55.709042 0 95.914956-27.939703 102.218426-54.686858a26.576791 26.576791 0 0 0-13.629123-31.517348z m-2.896189 27.258247c-4.259101 17.036404-34.072809 41.739191-86.37457 41.909554-51.109213 0-82.285833-25.043514-86.544934-41.909554a9.71075 9.71075 0 0 1 5.281286-12.266212 14.31058 14.31058 0 0 1 6.303469-1.022184 163.549482 163.549482 0 0 1 24.02133 3.066553l14.31058 2.214732a308.699647 308.699647 0 0 0 36.798633 2.725825 306.655278 306.655278 0 0 0 36.798634-2.725825l14.310579-2.214732a76.66382 76.66382 0 0 1 30.3248-2.044369 9.71075 9.71075 0 0 1 4.770193 12.266212z" fill="#4C4497" p-id="2506"></path></svg>